<svg xmlns="http://www.w3.org/2000/svg" width="1200" height="630" viewBox="0 0 1200 630" role="img" aria-label="ReportDoctor.pk social preview">
  <rect width="1200" height="630" fill="#f8fbfc"/>
  <rect x="64" y="64" width="1072" height="502" rx="28" fill="#ffffff" stroke="#d9e3ea" stroke-width="3"/>
  <rect x="112" y="114" width="112" height="112" rx="22" fill="#0f766e"/>
  <path d="M143 137h37l16 16v51h-53z" fill="#ffffff"/>
  <path d="M180 137v16h16" fill="#d7edea"/>
  <path d="M153 165h31M153 178h31M153 191h18" stroke="#0f766e" stroke-width="5" stroke-linecap="round"/>
  <path d="M184 189l7 7 17-21" fill="none" stroke="#16a34a" stroke-width="7" stroke-linecap="round" stroke-linejoin="round"/>
  <path d="M131 148h14M138 141v14" stroke="#ffffff" stroke-width="5" stroke-linecap="round"/>
  <text x="256" y="165" fill="#17212b" font-family="Arial, Helvetica, sans-serif" font-size="64" font-weight="800">ReportDoctor.pk</text>
  <text x="256" y="226" fill="#0f766e" font-family="Arial, Helvetica, sans-serif" font-size="34" font-weight="700">AI Data Consultant for Excel and CSV Reports</text>
  <text x="112" y="312" fill="#5b6774" font-family="Arial, Helvetica, sans-serif" font-size="30">Free scan, diagnosis, smart dashboards, insights, and PDF report workflow.</text>
  <rect x="112" y="386" width="230" height="92" rx="14" fill="#edfdf9" stroke="#b7e2dd"/>
  <rect x="386" y="386" width="230" height="92" rx="14" fill="#eff6ff" stroke="#bfdbfe"/>
  <rect x="660" y="386" width="230" height="92" rx="14" fill="#fff7ed" stroke="#fed7aa"/>
  <rect x="934" y="386" width="130" height="92" rx="14" fill="#f1f5f9" stroke="#d9e3ea"/>
  <text x="136" y="441" fill="#115e59" font-family="Arial, Helvetica, sans-serif" font-size="24" font-weight="800">Free Scan</text>
  <text x="410" y="441" fill="#1d4ed8" font-family="Arial, Helvetica, sans-serif" font-size="24" font-weight="800">Charts</text>
  <text x="684" y="441" fill="#9a3412" font-family="Arial, Helvetica, sans-serif" font-size="24" font-weight="800">PDF Report</text>
  <text x="952" y="441" fill="#334155" font-family="Arial, Helvetica, sans-serif" font-size="24" font-weight="800">AI</text>
</svg>
